<svg xmlns="http://www.w3.org/2000/svg" width="133.46" height="43.19" viewBox="0 0 133.46 43.19"><g id="レイヤー_2" data-name="レイヤー 2"><g id="ヘッダーフッター"><polygon points="14 5.63 5.63 5.63 5.63 14 14 5.63" style="fill:#0090cc"/><polygon points="29.18 37.55 37.55 37.55 37.55 29.18 29.18 37.55" style="fill:#003782"/><polygon points="37.55 14 37.55 5.63 29.18 5.63 37.55 14" style="fill:#0066a9"/><path d="M54.32,4.15a4,4,0,0,1-.19-.7,0,0,0,0,1,0,0h0a3.21,3.21,0,0,0,.69,0,6.26,6.26,0,0,0,.87-.11,1.15,1.15,0,0,0,.46-.14c.1-.08.16-.08.24,0a1.57,1.57,0,0,1,.28.37.28.28,0,0,1,.06.21.23.23,0,0,1-.12.12,2,2,0,0,0-.54.5L56,4.47a3.16,3.16,0,0,0-.82,2c0,.8.35,1.25,1,1.25a1.29,1.29,0,0,0,1.18-.61,3.5,3.5,0,0,0,.41-1.85,9.34,9.34,0,0,0,0-1c0-.15,0-.29,0-.35v0c0-.07,0-.15-.06-.24s0-.18.08-.22.34-.1.51-.13a.11.11,0,0,1,.13.09,8.39,8.39,0,0,0,.44,1A6.92,6.92,0,0,0,59.87,6a.16.16,0,0,1,0,.23,2.61,2.61,0,0,1-.37.44.14.14,0,0,1-.11,0,.17.17,0,0,1-.11-.1,7.58,7.58,0,0,1-.9-1.7,6.15,6.15,0,0,1,.08,1,3.13,3.13,0,0,1-.61,2,1.93,1.93,0,0,1-1.64.72,1.76,1.76,0,0,1-1.77-1.95,4,4,0,0,1,.62-2.06,2.82,2.82,0,0,1,.35-.44l-.17,0-.5.07-.15,0-.13,0A.16.16,0,0,1,54.32,4.15Zm7.12,2.93A2.2,2.2,0,0,1,62.7,5.3a11.18,11.18,0,0,1-.34-1.65,3.31,3.31,0,0,0-.17-.79,0,0,0,0,1,0,0h0a3.44,3.44,0,0,1,.88.09s.14,0,.14.13a.77.77,0,0,1,0,.15.68.68,0,0,0,0,.14c0,.1,0,.21,0,.32s0,.09,0,.14a10,10,0,0,0,.21,1.14L64,4.61l.35-.19.26-.17,0,0c.06-.06.12-.11.17-.17h0a3.54,3.54,0,0,1,.5.65.22.22,0,0,1,0,.22s-.05.08-.14.09a3.12,3.12,0,0,0-.64.21A10,10,0,0,0,63,6c-.54.37-.78.68-.78,1s.29.55,1,.55a11.72,11.72,0,0,0,2-.16.14.14,0,0,1,.11,0,.13.13,0,0,1,0,.09,5.9,5.9,0,0,1,.07.64.16.16,0,0,1,0,.1.33.33,0,0,1-.12.05,15.17,15.17,0,0,1-2,.1C62.1,8.42,61.44,8,61.44,7.08Zm4,1.15v0a.07.07,0,0,1,0,.05ZM63.15,3l0,0Zm4.21,3.07a2.59,2.59,0,0,1,.76-1.8,2.93,2.93,0,0,1,2.2-.88,2.36,2.36,0,0,1,2.58,2.4,2.51,2.51,0,0,1-2.09,2.51.23.23,0,0,1-.11,0c-.08,0-.14,0-.2-.15A1.44,1.44,0,0,0,70,7.74v0l0,0a4.59,4.59,0,0,0,1-.37l.1-.06a1.87,1.87,0,0,0,.43-.36,1.39,1.39,0,0,0,.15-.19,1.86,1.86,0,0,0,.2-.45A1.65,1.65,0,0,0,72,5.94a2.23,2.23,0,0,0,0-.27,1.51,1.51,0,0,0-1.48-1.56h0A8.86,8.86,0,0,1,69.73,7a1.3,1.3,0,0,1-1.16.8C68,7.84,67.36,7.22,67.36,6.06Zm1.67.5a7.78,7.78,0,0,0,.71-2.41,2,2,0,0,0-1.1.61A2,2,0,0,0,68.12,6c0,.65.26,1,.43,1S68.85,6.9,69,6.56ZM68.67,7h0Zm5.72,1.34s0,0,0,0h0a3.84,3.84,0,0,0,.52-1.51A12.34,12.34,0,0,0,75,5.12c0-.77,0-1.18,0-1.32v0c0-.09,0-.11.1-.11h2.66V3.47a8,8,0,0,0,0-.9v0h.16l.59,0a.12.12,0,0,1,.12.11.35.35,0,0,1,0,.12v0a2.31,2.31,0,0,0,0,.67v.14h1s0,0,0,0h0a2.43,2.43,0,0,0-.53-.6s0,0,0-.08,0,0,0-.07h0l.31-.22c.07-.05.1-.06.17,0a3.18,3.18,0,0,1,.58.58s0,.06,0,.09,0,.05-.07.08l-.34.25a.13.13,0,0,1-.07,0h.81c.08,0,.09,0,.09.11v.52c0,.08,0,.1-.09.1h-.05c-.11,0-.34,0-.85,0h-1a8.9,8.9,0,0,0,.25,1.85,5.67,5.67,0,0,0,.37-.74,3.16,3.16,0,0,0,.18-.63s0,0,0,0h0a3.42,3.42,0,0,1,.63.25s.12.06.12.13a.2.2,0,0,1-.08.13l0,0a.9.9,0,0,0-.17.33,7.63,7.63,0,0,1-.76,1.38c.24.52.54.83.69.83s.22-.23.25-.82a0,0,0,0,1,0,0h0a1.5,1.5,0,0,0,.36.26c.21.11.21.12.18.34-.11.73-.36,1.08-.78,1.09h0c-.43,0-.86-.38-1.23-1.06a5.5,5.5,0,0,1-1.19,1h0c-.08,0-.12.07-.16.07s-.09,0-.16-.16a1.41,1.41,0,0,0-.34-.35v0l0,0A5.24,5.24,0,0,0,78.25,7a8.24,8.24,0,0,1-.49-2.6h-2v.84h.93a4.23,4.23,0,0,0,.53,0h.05c.08,0,.1,0,.1.12s0,.23,0,.34,0,.29,0,.41v0a5.9,5.9,0,0,1-.16,1.26.79.79,0,0,1-.8.59,1.94,1.94,0,0,1-.34,0c-.17,0-.19,0-.22-.24a1.34,1.34,0,0,0-.16-.49v0h0a3,3,0,0,0,.54.06.26.26,0,0,0,.3-.23,5.84,5.84,0,0,0,.1-1.07h-.89a9.78,9.78,0,0,1-.12,1.18,5.41,5.41,0,0,1-.53,1.61c0,.08-.08.14-.13.14s-.09,0-.16-.12A2,2,0,0,0,74.39,8.31Zm5-5.68h0Zm5.7,5.53c-.73.22-1.47.41-2.14.56a.72.72,0,0,0-.23.08.14.14,0,0,1-.11,0s-.08,0-.11-.1c-.08-.24-.16-.57-.19-.67s0,0,0,0h0A5.81,5.81,0,0,0,83,7.94l.28-.05V6.31h-1c-.07,0-.09,0-.09-.1v-.5c0-.08,0-.1.09-.1h1v-2c0-.39,0-.62,0-.72V2.9c0-.08,0-.1.1-.1h4.08c.08,0,.1,0,.1.1v.5c0,.08,0,.09-.1.09h-3.4v.33h3.08c.08,0,.09,0,.09.1v.4c0,.08,0,.1-.09.1H84.05v.32h3.07c.08,0,.1,0,.1.11V5.2c0,.09,0,.1-.1.1H84.05v.34h4c.08,0,.1,0,.1.1v.5c0,.09,0,.1-.1.1H87l0,0c.17.11.31.2.45.31a.14.14,0,0,1,.08.12s0,.08-.1.1a.53.53,0,0,0-.22.13c-.2.16-.41.32-.65.48a5.46,5.46,0,0,0,1.71.57h0a0,0,0,0,1,0,0,1.77,1.77,0,0,0-.28.46c-.11.23-.12.24-.33.18a4.28,4.28,0,0,1-3.06-2.42h-.61V7.72c.37-.09.78-.19,1.22-.32h0a0,0,0,0,1,0,0,3.07,3.07,0,0,0,0,.42C85.27,8.08,85.27,8.09,85.05,8.16Zm1.87-1.85H85.39a3,3,0,0,0,.66.81,5.06,5.06,0,0,0,.67-.55A.82.82,0,0,0,86.92,6.31Zm8-3.4v0s0,0,0,0l.33-.25c.06,0,.09,0,.13,0a2.93,2.93,0,0,1,.65.71s0,0,0,0a.09.09,0,0,1,0,.05s0,0,0,.06l-.27.21a.11.11,0,0,1-.07,0h0a.13.13,0,0,1-.07-.06A3.59,3.59,0,0,0,94.9,2.91Zm.27.24.22.26A2.75,2.75,0,0,0,95.17,3.15Zm-.89.21s0,0,0,0v0l.35-.25a.11.11,0,0,1,.14,0,3.41,3.41,0,0,1,.64.74.11.11,0,0,1,0,.15l-.28.21L95,4.2h0s0,0-.07,0l-.2-.27a3.88,3.88,0,0,0-.26-.31Zm.76.79h0Zm0,2a.11.11,0,0,0,.06.08h0l.08,0a2.73,2.73,0,0,0,.51-.35.12.12,0,0,0,0-.16,4.55,4.55,0,0,0-1.12-1.68.11.11,0,0,0-.15,0,5.58,5.58,0,0,0-.52.32l0,0s0,0,0,0h0A4.68,4.68,0,0,1,95,6.18Zm-4.88-.86c-.06-.16-.13-.41-.21-.71,0,0,0,0,0,0h0c.31,0,.64,0,.88,0l.77-.1c.1-.37.15-.6.19-.82v0a5.23,5.23,0,0,0,.07-.75v0h0a6,6,0,0,1,.8.23.18.18,0,0,1,.12.12.16.16,0,0,1,0,.16,1.19,1.19,0,0,0-.13.25c0,.17-.09.32-.14.48s0,.2-.08.31a3.84,3.84,0,0,1,.5,0c.64,0,1,.47,1,1.35a6,6,0,0,1-.36,2.15,1,1,0,0,1-.93.66,1.78,1.78,0,0,1-.71-.1.22.22,0,0,1-.14-.22v0a1.83,1.83,0,0,0-.12-.6,0,0,0,0,1,0,0h0a1.73,1.73,0,0,0,.76.18c.22,0,.31-.08.41-.35a5.37,5.37,0,0,0,.26-1.69c0-.47-.08-.61-.36-.61a4.15,4.15,0,0,0-.54,0,18,18,0,0,1-1.35,3.2.15.15,0,0,1-.08.09.13.13,0,0,1-.13,0,3,3,0,0,1-.46-.3c-.08-.07-.09-.13,0-.21A14.9,14.9,0,0,0,91.35,5.2l-.62.11a1.55,1.55,0,0,0-.36.11A.17.17,0,0,1,90.12,5.32ZM92.2,7.68l-.24,0Zm5.27-2.13V5.44h0c.23,0,.39,0,.53,0h.08L98.43,5a10.58,10.58,0,0,0-.91-1s0,0,0-.08a.12.12,0,0,1,0-.08v0l.22-.35c0-.07.08-.11.17,0l.18.18c.12-.21.22-.41.35-.68a2,2,0,0,0,.15-.42h0a4.66,4.66,0,0,1,.59.26c.07,0,.1.08.1.13s0,.08-.07.11a.35.35,0,0,0-.12.16c-.22.37-.38.65-.59.95l.08.09.21.24c.14-.23.3-.49.46-.78a3.15,3.15,0,0,0,.2-.47h0s0,0,0,0a3.83,3.83,0,0,1,.57.29.14.14,0,0,1,.09.13.13.13,0,0,1-.08.12.85.85,0,0,0-.22.27c-.3.48-.64,1-1,1.44l.69,0L99.4,5a.14.14,0,0,1,0-.09s0,0,.1-.07l.27-.1c.09,0,.12,0,.15,0a7.28,7.28,0,0,1,.5,1.23c0,.1,0,.13-.1.17l-.31.11a.15.15,0,0,1-.11,0,.09.09,0,0,1,0-.07l-.08-.29L99.3,6V7.85c0,.51,0,.76,0,.85v0c0,.08,0,.1-.09.1h-.53c-.08,0-.1,0-.1-.1a.13.13,0,0,1,0-.05c0-.1,0-.34,0-.84V6l-.61,0a.6.6,0,0,0-.23.06.35.35,0,0,1-.12,0c-.07,0-.09-.1-.09-.13S97.5,5.74,97.47,5.55Zm2.68-.13s0-.08-.05-.13S100.13,5.38,100.15,5.42Zm-.23.82h0ZM100.44,3V2.94c0-.09,0-.11.1-.11h0c.08,0,.29,0,.71,0h1.06c.43,0,.63,0,.72,0h0c.09,0,.11,0,.11.11V3c0,.14,0,.52,0,1.15V7.94h.47c.09,0,.11,0,.11.11v.53c0,.09,0,.11-.11.11H99.91c-.08,0-.1,0-.1-.11V8c0-.09,0-.11.1-.11h.54V4.15C100.45,3.52,100.44,3.14,100.44,3Zm2,1.5V3.56h-1.3V4.5Zm-1.3.71v1h1.3v-1Zm0,1.67V7.94h1.3V6.88ZM97.8,8.29c.09.06.13.09.17.09s.09-.07.12-.16A7.43,7.43,0,0,0,98.39,7v0a.82.82,0,0,1,0-.18v0a.16.16,0,0,0,0-.09c0-.08-.1-.1-.13-.11l-.52-.09h0a0,0,0,0,0,0,0,1.62,1.62,0,0,1,0,.38h0a5.43,5.43,0,0,1-.33,1.27v0h0A2.7,2.7,0,0,1,97.8,8.29Zm2.32-.64-.33.09-.09,0h0a.09.09,0,0,1,0-.07,5,5,0,0,0-.21-1.1.14.14,0,0,1,0-.09.16.16,0,0,1,.1,0l.31-.09h0c.09,0,.12,0,.15.08a7.4,7.4,0,0,1,.25,1.07C100.23,7.58,100.23,7.63,100.12,7.65Zm-.57-.71.06.3Zm9.47.94h-.65v.37c0,.08,0,.1-.1.1h-.41c-.08,0-.1,0-.1-.1v0c0-.09,0-.35,0-1.18V6.48c0-.46,0-.68,0-.78V5.64c0-.08,0-.1.1-.1h.06a4.27,4.27,0,0,0,.52,0H109a4.18,4.18,0,0,0,.51,0h0c.08,0,.1,0,.1.1V5.7c0,.09,0,.28,0,.61v.62c0,.41,0,.66,0,.81a3.58,3.58,0,0,0,.47-.49l0-.23a11.09,11.09,0,0,1-.19-1.72h-2.37c.08.26.14.5.19.74,0,.09,0,.12-.09.14l-.28.08c-.06,0-.09,0-.12,0s0,0,0-.07l0-.21h0l-.19,0V7.85c0,.51,0,.76,0,.85v0c0,.09,0,.1-.09.1h-.49c-.08,0-.09,0-.09-.1V8.69c0-.1,0-.34,0-.84V6.07l-.38,0a.45.45,0,0,0-.24,0,.24.24,0,0,1-.12,0s-.07,0-.1-.13-.07-.36-.1-.58c0,0,0,0,0,0h.43a6.3,6.3,0,0,0,.37-.53,9.13,9.13,0,0,0-.76-.91L105.32,4s0-.07.06-.11l.27-.33s0-.06.08-.06,0,0,.07,0l.08.09a6.73,6.73,0,0,0,.35-.71,2.14,2.14,0,0,0,.13-.38v0h0l.13,0,.4.18a.14.14,0,0,1,.1.13A.15.15,0,0,1,107,3a.39.39,0,0,0-.11.15l-.06.11c-.16.31-.31.57-.48.85l.21.26.28-.52.09-.15a2,2,0,0,0,.18-.42h0a3.45,3.45,0,0,1,.52.25h0V3.31c0-.08,0-.09.1-.09h.61V3.06a2.64,2.64,0,0,0,0-.51v0h0c.25,0,.41,0,.64,0s.13,0,.13.09a.19.19,0,0,1,0,.1l0,0a.8.8,0,0,0,0,.27v.17h.59c.07,0,.1,0,.1.09v.44c0,.09,0,.11-.1.11h-1.88c-.08,0-.1,0-.1-.11v0c-.06,0-.09.08-.18.25-.34.55-.65,1-1,1.46l.49,0c0-.12-.08-.24-.13-.36s0-.12.09-.15l.25-.08c.08,0,.13,0,.15.05s.1.25.14.37V4.76c0-.08,0-.11.09-.11h0l.38,0a4.63,4.63,0,0,0-.16-.55.08.08,0,0,1,0-.08s0,0,.1,0l.3-.09c.09,0,.12,0,.15.07a4.88,4.88,0,0,1,.21.7h.24a3,3,0,0,0,.11-.48,2,2,0,0,0,0-.29,0,0,0,0,0,0,0h0a4.13,4.13,0,0,1,.53.14h0s.07,0,.07.09,0,.08,0,.09h0a.44.44,0,0,0-.06.12l-.11.33h.45l0-1.13a6.07,6.07,0,0,0,0-1,0,0,0,0,0,0,0h0a6,6,0,0,1,.63,0c.07,0,.14,0,.14.1a.17.17,0,0,1,0,.1s0,0,0,0a1.91,1.91,0,0,0,0,.66c0,.41,0,.8,0,1.15h.09c.53,0,.78,0,.87,0h0c.09,0,.11,0,.11.11v.45c0,.08,0,.1-.11.1h-1c0,.44,0,.8.1,1.12a2.67,2.67,0,0,0,.14-.34,3.57,3.57,0,0,0,.16-.54v0h0a3.67,3.67,0,0,1,.51.27c.07,0,.09.08.09.13a.19.19,0,0,1-.07.15h0a1.66,1.66,0,0,0-.16.33,9.77,9.77,0,0,1-.5.91c.14.55.24.58.26.58s.11-.1.13-.77l0,0h0a2.29,2.29,0,0,0,.33.24c.13.07.13.11.12.24h0c-.08.79-.26,1.13-.62,1.13s-.54-.28-.75-.79a6.58,6.58,0,0,1-.9.81.36.36,0,0,1-.17.08s-.08-.05-.13-.12a1.25,1.25,0,0,0-.3-.34,0,0,0,0,1,0,0v0l0,0c.13-.08.26-.16.38-.25h-.12c-.08,0-.1,0-.1-.1Zm0-1.42V6.09h-.65v.37Zm-.65.52v.37H109V7ZM110,8.22l-.18.16Zm-2.62-1.84-.26.06c-.09,0-.12,0-.1.13a9.78,9.78,0,0,1,.18,1.25s0,.07,0,.09h0l.09,0,.27-.09c.07,0,.11,0,.1-.13a8,8,0,0,0-.2-1.22C107.46,6.38,107.43,6.35,107.34,6.38Zm-2,1.78,0,0h0a4.29,4.29,0,0,0,.27-1.26v0c0-.12,0-.23,0-.38v0h0l.48.09s.12,0,.12.11a.19.19,0,0,1,0,.12.54.54,0,0,0,0,.22,5.51,5.51,0,0,1-.24,1.28c0,.12,0,.18-.11.18s-.08,0-.17-.09A2,2,0,0,0,105.33,8.16Zm.64-.35.06-.36Zm4.94-3.7s0,.07,0,.08h0a.16.16,0,0,0,.09,0l.32-.15a.12.12,0,0,0,.08-.16A3.6,3.6,0,0,0,111.1,3c0-.08-.06-.07-.14,0l-.32.13a.11.11,0,0,0-.08.07.1.1,0,0,0,0,.09A4.43,4.43,0,0,1,110.91,4.11Zm2.42,1.95a2.58,2.58,0,0,1,.77-1.8,2.92,2.92,0,0,1,2.19-.88,2.36,2.36,0,0,1,2.58,2.4,2.5,2.5,0,0,1-2.08,2.51.23.23,0,0,1-.11,0c-.08,0-.14,0-.21-.15a1.28,1.28,0,0,0-.46-.42v0l0,0a4.59,4.59,0,0,0,1-.37l.09-.06a1.89,1.89,0,0,0,.44-.35c.06-.07.1-.14.15-.21a1.89,1.89,0,0,0,.2-.43,1.72,1.72,0,0,0,.06-.34,2.06,2.06,0,0,0,0-.26,1.51,1.51,0,0,0-1.48-1.56h0A8.44,8.44,0,0,1,115.71,7a1.3,1.3,0,0,1-1.17.8C114,7.84,113.33,7.22,113.33,6.06Zm1.2.91c.16,0,.3-.07.48-.41a8,8,0,0,0,.71-2.41,2,2,0,0,0-1.1.61A2,2,0,0,0,114.1,6C114.1,6.66,114.36,7,114.53,7Zm.12,0h0Zm5.47,1.23,0,0,0,0a3.47,3.47,0,0,0,2.07-2,5.76,5.76,0,0,0,.28-1.34h-1.92c-.09,0-.1,0-.1-.1V4.14c0-.08,0-.1.1-.1h2V3.49a5.71,5.71,0,0,0-.06-.91s0,0,0,0,0,0,0,0h0a5.57,5.57,0,0,1,.79.08s.16,0,.16.12a.27.27,0,0,1-.07.18,2.16,2.16,0,0,0,0,.57v.56h2.3c.08,0,.1,0,.1.11s0,.43,0,.62a21,21,0,0,1-.21,3,1,1,0,0,1-1.14.92,6.32,6.32,0,0,1-.65,0c-.22,0-.23,0-.27-.26a1.87,1.87,0,0,0-.19-.54s0,0,0,0h0a5.64,5.64,0,0,0,1,.08c.2,0,.39,0,.46-.43a17.25,17.25,0,0,0,.17-2.7h-1.64a6.21,6.21,0,0,1-.34,1.63,4.16,4.16,0,0,1-2,2.26l-.06,0-.12,0s0,0-.06-.05l0,0a.31.31,0,0,1-.1-.08A1.35,1.35,0,0,0,120.12,8.2Zm4.38-.3a.45.45,0,0,1-.11,0A.45.45,0,0,0,124.5,7.9Zm.2-.23,0,.07Zm5.22-.17a1.56,1.56,0,0,1-.24-.91l0,0,.61-.06h0l0,0a.14.14,0,0,1,0,.11c0,.45.33.62,1.06.62a8.67,8.67,0,0,0,1.28-.09h0c.06,0,.08,0,.09.11a5.14,5.14,0,0,1,0,.59c0,.1,0,.12-.13.13a9.63,9.63,0,0,1-1.1.08C130.7,8.08,130.22,7.92,129.92,7.5Zm.42-.93h0s0,0,0,0Zm-.44-1.9V4.48c0-.27,0-.41,0-.5s0-.13.12-.14a8.83,8.83,0,0,1,2.45-.08c.14,0,.18,0,.18.11a5.43,5.43,0,0,1,0,.58.12.12,0,0,1,0,.09.11.11,0,0,1-.08,0c-.43,0-.77,0-1.09,0a8.1,8.1,0,0,0-1.52.15h0Zm2.68-.17h0l0,0Zm-4.38,4h0a4.45,4.45,0,0,0,.55-.11c.08,0,.11-.06.11-.12a.25.25,0,0,0,0-.08V8.05a.5.5,0,0,1,0-.2,6.27,6.27,0,0,1,.38-1,.24.24,0,0,0,0-.12.21.21,0,0,0,0-.11h0a.41.41,0,0,1-.05-.09.92.92,0,0,1-.18-.34s0,0,0,0h0c-.13.33-.23.54-.33.75,0,.06-.06.12-.08.19a5,5,0,0,1,0-.71,11.49,11.49,0,0,1,.29-2.2A1.58,1.58,0,0,1,129,3.7c.09-.14.11-.16.11-.22s-.06-.13-.17-.19a3.19,3.19,0,0,0-.72-.25h0a0,0,0,0,0,0,0,6.25,6.25,0,0,1-.12,1,12.5,12.5,0,0,0-.23,2.25,6.44,6.44,0,0,0,.31,2A.11.11,0,0,0,128.2,8.47Zm-.82,22.87a7.68,7.68,0,0,1-.34,1.09,7.22,7.22,0,0,1-1.46,2.31,6.73,6.73,0,0,1-2.22,1.51,6.94,6.94,0,0,1-1.61.44,7.29,7.29,0,0,1-2.46-.74,7.52,7.52,0,0,1-2.66-2.27,9.76,9.76,0,0,1-1.53-3.34,16.27,16.27,0,0,1-.49-4.07,14.51,14.51,0,0,1,.49-3.8,9.84,9.84,0,0,1,1.53-3.25A7.54,7.54,0,0,1,119.27,17a7.65,7.65,0,0,1,2.48-.75,7.43,7.43,0,0,1,3.19,1.24,6,6,0,0,1,2.31,3.34h6.13a9,9,0,0,0-1.07-2.86A8.8,8.8,0,0,0,130,15.36a10,10,0,0,0-3.13-1.54,12.65,12.65,0,0,0-3.73-.53,13.3,13.3,0,0,0-1.43.07c-.43,0-.86-.07-1.31-.07a11.92,11.92,0,0,0-5.12,1,10.53,10.53,0,0,0-3.73,2.83,12.52,12.52,0,0,0-2.27,4.2,16.69,16.69,0,0,0-.77,5.16,17.79,17.79,0,0,0,.72,5.14,11.88,11.88,0,0,0,2.16,4.15A10,10,0,0,0,115,38.57a12.05,12.05,0,0,0,5.1,1c.47,0,.91,0,1.35-.07s.91.07,1.39.07a10.59,10.59,0,0,0,7.6-2.64,10.6,10.6,0,0,0,3-5.6ZM104.53,27a9.8,9.8,0,0,0-2.59-1.29c-1-.31-1.94-.59-2.94-.82s-2-.46-2.94-.66a14.9,14.9,0,0,1-2.58-.75,5.22,5.22,0,0,1-1.83-1.18A2.61,2.61,0,0,1,91,20.4a4.05,4.05,0,0,1,.48-2.06A3.71,3.71,0,0,1,92.7,17a5.76,5.76,0,0,1,1.82-.71l.72-.11a6.52,6.52,0,0,1,2.89,1.12A5,5,0,0,1,100,20.78H106a8.51,8.51,0,0,0-.75-3.11,7,7,0,0,0-2-2.48,8,8,0,0,0-2.91-1.44,13.22,13.22,0,0,0-3.59-.46c-.44,0-.88,0-1.32.07s-.93-.07-1.42-.07a13,13,0,0,0-3.36.44,9.18,9.18,0,0,0-2.92,1.34,6.84,6.84,0,0,0-2.06,2.28,6.75,6.75,0,0,0-.77,3.29,5.25,5.25,0,0,0,2.51,4.74A11.13,11.13,0,0,0,90,26.54c1,.29,1.94.55,2.94.77l2.94.65a13.25,13.25,0,0,1,2.58.83,4.91,4.91,0,0,1,1.83,1.32,3.14,3.14,0,0,1,.69,2.11,3.85,3.85,0,0,1-2,3.64,6.7,6.7,0,0,1-2.06.72c-.3.06-.6.1-.9.13a10.7,10.7,0,0,1-1.37-.27,6.56,6.56,0,0,1-2.34-1.09A5.38,5.38,0,0,1,90,31.19h-5.9a8.68,8.68,0,0,0,.8,3.51,7.58,7.58,0,0,0,2.25,2.75,10,10,0,0,0,3.31,1.6,14.86,14.86,0,0,0,4,.53c.44,0,.89,0,1.34-.07s.92.07,1.4.07a15.21,15.21,0,0,0,3.46-.41,10,10,0,0,0,3.15-1.3,7.41,7.41,0,0,0,2.31-2.32,6.3,6.3,0,0,0,.89-3.43,6.27,6.27,0,0,0-.68-3.1A6.18,6.18,0,0,0,104.53,27Zm-37.1,5.09L60.59,13.89H53.73V39h5.32V23.21l5.32,14.3h6.07l5.39-14.3V39h5.32V13.89H74.31Z" style="fill:#231815"/><polygon points="5.63 29.18 5.63 37.55 14 37.55 5.63 29.18" style="fill:#0066a9"/><polygon points="21.59 43.19 21.59 21.59 0 21.59 0 21.59 21.59 43.19 21.59 43.19" style="fill:#0066a9"/><polygon points="21.59 43.19 43.19 21.59 43.19 21.59 21.59 21.59 21.59 43.19" style="fill:#003782"/><polygon points="43.19 21.59 21.59 0 21.59 21.59 43.19 21.59" style="fill:#0066a9"/><polygon points="0 21.59 21.59 21.59 21.59 0 21.59 0 0 21.59" style="fill:#0090cc"/></g></g></svg>